<svg width="1432" height="1024" viewBox="0 0 1432 1024" fill="none" xmlns="http://www.w3.org/2000/svg">
<rect width="1432" height="1024" fill="#E5E5E5"/>
<g clip-path="url(#clip0)">
<rect width="1432" height="1024" fill="black"/>
<path d="M4 5H52V53H4V5Z" fill="#FAFF01"/>
<path d="M59 5H107V53H59V5Z" fill="#FAFF01"/>
<path d="M114 5H162V53H114V5Z" fill="#FAFF01"/>
<path d="M169 5H217V53H169V5Z" fill="#FAFF01"/>
<path d="M224 5H272V53H224V5Z" fill="#FAFF01"/>
<path d="M279 5H327V53H279V5Z" fill="#FAFF01"/>
<path d="M334 5H382V53H334V5Z" fill="#FAFF01"/>
<path d="M389 5H437V53H389V5Z" fill="#FAFF01"/>
<path d="M444 5H492V53H444V5Z" fill="#FAFF01"/>
<path d="M499 5H547V53H499V5Z" fill="#FAFF01"/>
<path d="M554 5H602V53H554V5Z" fill="#FAFF01"/>
<path d="M609 5H657V53H609V5Z" fill="#FAFF01"/>
<path d="M664 5H712V53H664V5Z" fill="#FAFF01"/>
<path d="M719 5H767V53H719V5Z" fill="#FAFF01"/>
<path d="M774 5H822V53H774V5Z" fill="#FAFF01"/>
<path d="M829 5H877V53H829V5Z" fill="#FAFF01"/>
<path d="M884 5H932V53H884V5Z" fill="#FAFF01"/>
<path d="M939 5H987V53H939V5Z" fill="#FAFF01"/>
<path d="M994 5H1042V53H994V5Z" fill="#FAFF01"/>
<path d="M1049 5H1097V53H1049V5Z" fill="#FAFF01"/>
<path d="M1104 5H1152V53H1104V5Z" fill="#FAFF01"/>
<path d="M1159 5H1207V53H1159V5Z" fill="#FAFF01"/>
<path d="M1214 5H1262V53H1214V5Z" fill="#FAFF01"/>
<path d="M1269 5H1317V53H1269V5Z" fill="#FAFF01"/>
<path d="M1324 5H1372V53H1324V5Z" fill="#FAFF01"/>
<path d="M1379 5H1427V53H1379V5Z" fill="#FAFF01"/>
<path d="M4 59H52V107H4V59Z" fill="#FAFF01"/>
<path d="M59 59H107V107H59V59Z" fill="#FAFF01"/>
<path d="M114 59H162V107H114V59Z" fill="#FAFF01"/>
<path d="M169 59H217V107H169V59Z" fill="#FAFF01"/>
<path d="M224 59H272V107H224V59Z" fill="#FAFF01"/>
<path d="M279 59H327V107H279V59Z" fill="#FAFF01"/>
<path d="M334 59H382V107H334V59Z" fill="#FAFF01"/>
<path d="M389 59H437V107H389V59Z" fill="#FAFF01"/>
<path d="M444 59H492V107H444V59Z" fill="#FAFF01"/>
<path d="M499 59H547V107H499V59Z" fill="#FAFF01"/>
<path d="M554 59H602V107H554V59Z" fill="#FAFF01"/>
<path d="M609 59H657V107H609V59Z" fill="#FAFF01"/>
<path d="M664 59H712V107H664V59Z" fill="#FAFF01"/>
<path d="M719 59H767V107H719V59Z" fill="#FAFF01"/>
<path d="M774 59H822V107H774V59Z" fill="#FAFF01"/>
<path d="M829 59H877V107H829V59Z" fill="#FAFF01"/>
<path d="M884 59H932V107H884V59Z" fill="#FAFF01"/>
<path d="M939 59H987V107H939V59Z" fill="#FAFF01"/>
<path d="M994 59H1042V107H994V59Z" fill="#FAFF01"/>
<path d="M1049 59H1097V107H1049V59Z" fill="#FAFF01"/>
<path d="M1104 59H1152V107H1104V59Z" fill="#FAFF01"/>
<path d="M1159 59H1207V107H1159V59Z" fill="#FAFF01"/>
<path d="M1214 59H1262V107H1214V59Z" fill="#FAFF01"/>
<path d="M1269 59H1317V107H1269V59Z" fill="#FAFF01"/>
<path d="M1324 59H1372V107H1324V59Z" fill="#FAFF01"/>
<path d="M1379 59H1427V107H1379V59Z" fill="#FAFF01"/>
<path d="M4 383H52V431H4V383Z" fill="#FAFF01"/>
<path d="M59 383H107V431H59V383Z" fill="#FAFF01"/>
<path d="M114 383H162V431H114V383Z" fill="#FAFF01"/>
<path d="M169 383H217V431H169V383Z" fill="#FAFF01"/>
<path d="M224 383H272V431H224V383Z" fill="#FAFF01"/>
<path d="M279 383H327V431H279V383Z" fill="#FAFF01"/>
<path d="M334 383H382V431H334V383Z" fill="#FAFF01"/>
<path d="M389 383H437V431H389V383Z" fill="#FAFF01"/>
<path d="M444 383H492V431H444V383Z" fill="#FAFF01"/>
<path d="M499 383H547V431H499V383Z" fill="#FAFF01"/>
<path d="M554 383H602V431H554V383Z" fill="#FAFF01"/>
<path d="M609 383H657V431H609V383Z" fill="#FAFF01"/>
<path d="M664 383H712V431H664V383Z" fill="#FAFF01"/>
<path d="M719 383H767V431H719V383Z" fill="#FAFF01"/>
<path d="M774 383H822V431H774V383Z" fill="#FAFF01"/>
<path d="M829 383H877V431H829V383Z" fill="#FAFF01"/>
<path d="M884 383H932V431H884V383Z" fill="#FAFF01"/>
<path d="M939 383H987V431H939V383Z" fill="#FAFF01"/>
<path d="M994 383H1042V431H994V383Z" fill="#FAFF01"/>
<path d="M1049 383H1097V431H1049V383Z" fill="#FAFF01"/>
<path d="M1104 383H1152V431H1104V383Z" fill="#FAFF01"/>
<path d="M1159 383H1207V431H1159V383Z" fill="#FAFF01"/>
<path d="M1214 383H1262V431H1214V383Z" fill="#FAFF01"/>
<path d="M1269 383H1317V431H1269V383Z" fill="#FAFF01"/>
<path d="M1324 383H1372V431H1324V383Z" fill="#FAFF01"/>
<path d="M1379 383H1427V431H1379V383Z" fill="#FAFF01"/>
<path d="M4 491H52V539H4V491Z" fill="#FAFF01"/>
<path d="M59 491H107V539H59V491Z" fill="#FAFF01"/>
<path d="M114 491H162V539H114V491Z" fill="#FAFF01"/>
<path d="M169 491H217V539H169V491Z" fill="#FAFF01"/>
<path d="M224 491H272V539H224V491Z" fill="#FAFF01"/>
<path d="M279 491H327V539H279V491Z" fill="#FAFF01"/>
<path d="M334 491H382V539H334V491Z" fill="#FAFF01"/>
<path d="M389 491H437V539H389V491Z" fill="#FAFF01"/>
<path d="M444 491H492V539H444V491Z" fill="#FAFF01"/>
<path d="M499 491H547V539H499V491Z" fill="#FAFF01"/>
<path d="M554 491H602V539H554V491Z" fill="#FAFF01"/>
<path d="M609 491H657V539H609V491Z" fill="#FAFF01"/>
<path d="M664 491H712V539H664V491Z" fill="#FAFF01"/>
<path d="M719 491H767V539H719V491Z" fill="#FAFF01"/>
<path d="M774 491H822V539H774V491Z" fill="#FAFF01"/>
<path d="M829 491H877V539H829V491Z" fill="#FAFF01"/>
<path d="M884 491H932V539H884V491Z" fill="#FAFF01"/>
<path d="M939 491H987V539H939V491Z" fill="#FAFF01"/>
<path d="M994 491H1042V539H994V491Z" fill="#FAFF01"/>
<path d="M1049 491H1097V539H1049V491Z" fill="#FAFF01"/>
<path d="M1104 491H1152V539H1104V491Z" fill="#FAFF01"/>
<path d="M1159 491H1207V539H1159V491Z" fill="#FAFF01"/>
<path d="M1214 491H1262V539H1214V491Z" fill="#FAFF01"/>
<path d="M1269 491H1317V539H1269V491Z" fill="#FAFF01"/>
<path d="M1324 491H1372V539H1324V491Z" fill="#FAFF01"/>
<path d="M1379 491H1427V539H1379V491Z" fill="#FAFF01"/>
<path d="M4 545H52V593H4V545Z" fill="#FAFF01"/>
<path d="M59 545H107V593H59V545Z" fill="#FAFF01"/>
<path d="M114 545H162V593H114V545Z" fill="#FAFF01"/>
<path d="M169 545H217V593H169V545Z" fill="#FAFF01"/>
<path d="M224 545H272V593H224V545Z" fill="#FAFF01"/>
<path d="M279 545H327V593H279V545Z" fill="#FAFF01"/>
<path d="M334 545H382V593H334V545Z" fill="#FAFF01"/>
<path d="M389 545H437V593H389V545Z" fill="#FAFF01"/>
<path d="M444 545H492V593H444V545Z" fill="#FAFF01"/>
<path d="M499 545H547V593H499V545Z" fill="#FAFF01"/>
<path d="M554 545H602V593H554V545Z" fill="#FAFF01"/>
<path d="M609 545H657V593H609V545Z" fill="#FAFF01"/>
<path d="M664 545H712V593H664V545Z" fill="#FAFF01"/>
<path d="M719 545H767V593H719V545Z" fill="#FAFF01"/>
<path d="M774 545H822V593H774V545Z" fill="#FAFF01"/>
<path d="M829 545H877V593H829V545Z" fill="#FAFF01"/>
<path d="M884 545H932V593H884V545Z" fill="#FAFF01"/>
<path d="M939 545H987V593H939V545Z" fill="#FAFF01"/>
<path d="M994 545H1042V593H994V545Z" fill="#FAFF01"/>
<path d="M1049 545H1097V593H1049V545Z" fill="#FAFF01"/>
<path d="M1104 545H1152V593H1104V545Z" fill="#FAFF01"/>
<path d="M1159 545H1207V593H1159V545Z" fill="#FAFF01"/>
<path d="M1214 545H1262V593H1214V545Z" fill="#FAFF01"/>
<path d="M1269 545H1317V593H1269V545Z" fill="#FAFF01"/>
<path d="M1324 545H1372V593H1324V545Z" fill="#FAFF01"/>
<path d="M1379 545H1427V593H1379V545Z" fill="#FAFF01"/>
<path d="M4 113H52V161H4V113Z" fill="#FAFF01"/>
<path d="M59 113H107V161H59V113Z" fill="#FAFF01"/>
<path d="M114 113H162V161H114V113Z" fill="#FAFF01"/>
<path d="M169 113H217V161H169V113Z" fill="#FAFF01"/>
<path d="M224 113H272V161H224V113Z" fill="#FAFF01"/>
<path d="M279 113H327V161H279V113Z" fill="#FAFF01"/>
<path d="M334 113H382V161H334V113Z" fill="#FAFF01"/>
<path d="M389 113H437V161H389V113Z" fill="#FAFF01"/>
<path d="M444 113H492V161H444V113Z" fill="#FAFF01"/>
<path d="M499 113H547V161H499V113Z" fill="#FAFF01"/>
<path d="M554 113H602V161H554V113Z" fill="#FAFF01"/>
<path d="M609 113H657V161H609V113Z" fill="#FAFF01"/>
<path d="M664 113H712V161H664V113Z" fill="#FAFF01"/>
<path d="M719 113H767V161H719V113Z" fill="#FAFF01"/>
<path d="M774 113H822V161H774V113Z" fill="#FAFF01"/>
<path d="M829 113H877V161H829V113Z" fill="#FAFF01"/>
<path d="M884 113H932V161H884V113Z" fill="#FAFF01"/>
<path d="M939 113H987V161H939V113Z" fill="#FAFF01"/>
<path d="M994 113H1042V161H994V113Z" fill="#FAFF01"/>
<path d="M1049 113H1097V161H1049V113Z" fill="#FAFF01"/>
<path d="M1104 113H1152V161H1104V113Z" fill="#FAFF01"/>
<path d="M1159 113H1207V161H1159V113Z" fill="#FAFF01"/>
<path d="M1214 113H1262V161H1214V113Z" fill="#FAFF01"/>
<path d="M1269 113H1317V161H1269V113Z" fill="#FAFF01"/>
<path d="M1324 113H1372V161H1324V113Z" fill="#FAFF01"/>
<path d="M1379 113H1427V161H1379V113Z" fill="#FAFF01"/>
<path d="M4 167H52V215H4V167Z" fill="#FAFF01"/>
<path d="M59 167H107V215H59V167Z" fill="#FAFF01"/>
<path d="M114 167H162V215H114V167Z" fill="#FAFF01"/>
<path d="M169 167H217V215H169V167Z" fill="#FAFF01"/>
<path d="M224 167H272V215H224V167Z" fill="#FAFF01"/>
<path d="M279 167H327V215H279V167Z" fill="#FAFF01"/>
<path d="M334 167H382V215H334V167Z" fill="#FAFF01"/>
<path d="M389 167H437V215H389V167Z" fill="#FAFF01"/>
<path d="M444 167H492V215H444V167Z" fill="#FAFF01"/>
<path d="M499 167H547V215H499V167Z" fill="#FAFF01"/>
<path d="M554 167H602V215H554V167Z" fill="#FAFF01"/>
<path d="M609 167H657V215H609V167Z" fill="#FAFF01"/>
<path d="M664 167H712V215H664V167Z" fill="#FAFF01"/>
<path d="M719 167H767V215H719V167Z" fill="#FAFF01"/>
<path d="M774 167H822V215H774V167Z" fill="#FAFF01"/>
<path d="M829 167H877V215H829V167Z" fill="#FAFF01"/>
<path d="M884 167H932V215H884V167Z" fill="#FAFF01"/>
<path d="M939 167H987V215H939V167Z" fill="#FAFF01"/>
<path d="M994 167H1042V215H994V167Z" fill="#FAFF01"/>
<path d="M1049 167H1097V215H1049V167Z" fill="#FAFF01"/>
<path d="M1104 167H1152V215H1104V167Z" fill="#FAFF01"/>
<path d="M1159 167H1207V215H1159V167Z" fill="#FAFF01"/>
<path d="M1214 167H1262V215H1214V167Z" fill="#FAFF01"/>
<path d="M1269 167H1317V215H1269V167Z" fill="#FAFF01"/>
<path d="M1324 167H1372V215H1324V167Z" fill="#FAFF01"/>
<path d="M1379 167H1427V215H1379V167Z" fill="#FAFF01"/>
<path d="M4 221H52V269H4V221Z" fill="#FAFF01"/>
<path d="M59 221H107V269H59V221Z" fill="#FAFF01"/>
<path d="M114 221H162V269H114V221Z" fill="#FAFF01"/>
<path d="M169 221H217V269H169V221Z" fill="#FAFF01"/>
<path d="M224 221H272V269H224V221Z" fill="#FAFF01"/>
<path d="M279 221H327V269H279V221Z" fill="#FAFF01"/>
<path d="M334 221H382V269H334V221Z" fill="#FAFF01"/>
<path d="M389 221H437V269H389V221Z" fill="#FAFF01"/>
<path d="M444 221H492V269H444V221Z" fill="#FAFF01"/>
<path d="M499 221H547V269H499V221Z" fill="#FAFF01"/>
<path d="M554 221H602V269H554V221Z" fill="#FAFF01"/>
<path d="M609 221H657V269H609V221Z" fill="#FAFF01"/>
<path d="M664 221H712V269H664V221Z" fill="#FAFF01"/>
<path d="M719 221H767V269H719V221Z" fill="#FAFF01"/>
<path d="M774 221H822V269H774V221Z" fill="#FAFF01"/>
<path d="M829 221H877V269H829V221Z" fill="#FAFF01"/>
<path d="M884 221H932V269H884V221Z" fill="#FAFF01"/>
<path d="M939 221H987V269H939V221Z" fill="#FAFF01"/>
<path d="M994 221H1042V269H994V221Z" fill="#FAFF01"/>
<path d="M1049 221H1097V269H1049V221Z" fill="#FAFF01"/>
<path d="M1104 221H1152V269H1104V221Z" fill="#FAFF01"/>
<path d="M1159 221H1207V269H1159V221Z" fill="#FAFF01"/>
<path d="M1214 221H1262V269H1214V221Z" fill="#FAFF01"/>
<path d="M1269 221H1317V269H1269V221Z" fill="#FAFF01"/>
<path d="M1324 221H1372V269H1324V221Z" fill="#FAFF01"/>
<path d="M1379 221H1427V269H1379V221Z" fill="#FAFF01"/>
<path d="M4 275H52V323H4V275Z" fill="#FAFF01"/>
<path d="M59 275H107V323H59V275Z" fill="#FAFF01"/>
<path d="M114 275H162V323H114V275Z" fill="#FAFF01"/>
<path d="M169 275H217V323H169V275Z" fill="#FAFF01"/>
<path d="M224 275H272V323H224V275Z" fill="#FAFF01"/>
<path d="M279 275H327V323H279V275Z" fill="#FAFF01"/>
<path d="M334 275H382V323H334V275Z" fill="#FAFF01"/>
<path d="M389 275H437V323H389V275Z" fill="#FAFF01"/>
<path d="M444 275H492V323H444V275Z" fill="#FAFF01"/>
<path d="M499 275H547V323H499V275Z" fill="#FAFF01"/>
<path d="M554 275H602V323H554V275Z" fill="#FAFF01"/>
<path d="M609 275H657V323H609V275Z" fill="#FAFF01"/>
<path d="M664 275H712V323H664V275Z" fill="#FAFF01"/>
<path d="M719 275H767V323H719V275Z" fill="#FAFF01"/>
<path d="M774 275H822V323H774V275Z" fill="#FAFF01"/>
<path d="M829 275H877V323H829V275Z" fill="#FAFF01"/>
<path d="M884 275H932V323H884V275Z" fill="#FAFF01"/>
<path d="M939 275H987V323H939V275Z" fill="#FAFF01"/>
<path d="M994 275H1042V323H994V275Z" fill="#FAFF01"/>
<path d="M1049 275H1097V323H1049V275Z" fill="#FAFF01"/>
<path d="M1104 275H1152V323H1104V275Z" fill="#FAFF01"/>
<path d="M1159 275H1207V323H1159V275Z" fill="#FAFF01"/>
<path d="M1214 275H1262V323H1214V275Z" fill="#FAFF01"/>
<path d="M1269 275H1317V323H1269V275Z" fill="#FAFF01"/>
<path d="M1324 275H1372V323H1324V275Z" fill="#FAFF01"/>
<path d="M1379 275H1427V323H1379V275Z" fill="#FAFF01"/>
<path d="M4 437H52V485H4V437Z" fill="#FAFF01"/>
<path d="M59 437H107V485H59V437Z" fill="#FAFF01"/>
<path d="M114 437H162V485H114V437Z" fill="#FAFF01"/>
<path d="M169 437H217V485H169V437Z" fill="#FAFF01"/>
<path d="M224 437H272V485H224V437Z" fill="#FAFF01"/>
<path d="M279 437H327V485H279V437Z" fill="#FAFF01"/>
<path d="M334 437H382V485H334V437Z" fill="#FAFF01"/>
<path d="M389 437H437V485H389V437Z" fill="#FAFF01"/>
<path d="M444 437H492V485H444V437Z" fill="#FAFF01"/>
<path d="M499 437H547V485H499V437Z" fill="#FAFF01"/>
<path d="M554 437H602V485H554V437Z" fill="#FAFF01"/>
<path d="M609 437H657V485H609V437Z" fill="#FAFF01"/>
<path d="M664 437H712V485H664V437Z" fill="#FAFF01"/>
<path d="M719 437H767V485H719V437Z" fill="#FAFF01"/>
<path d="M774 437H822V485H774V437Z" fill="#FAFF01"/>
<path d="M829 437H877V485H829V437Z" fill="#FAFF01"/>
<path d="M884 437H932V485H884V437Z" fill="#FAFF01"/>
<path d="M939 437H987V485H939V437Z" fill="#FAFF01"/>
<path d="M994 437H1042V485H994V437Z" fill="#FAFF01"/>
<path d="M1049 437H1097V485H1049V437Z" fill="#FAFF01"/>
<path d="M1104 437H1152V485H1104V437Z" fill="#FAFF01"/>
<path d="M1159 437H1207V485H1159V437Z" fill="#FAFF01"/>
<path d="M1214 437H1262V485H1214V437Z" fill="#FAFF01"/>
<path d="M1269 437H1317V485H1269V437Z" fill="#FAFF01"/>
<path d="M1324 437H1372V485H1324V437Z" fill="#FAFF01"/>
<path d="M1379 437H1427V485H1379V437Z" fill="#FAFF01"/>
<path d="M4 329H52V377H4V329Z" fill="#FAFF01"/>
<path d="M59 329H107V377H59V329Z" fill="#FAFF01"/>
<path d="M114 329H162V377H114V329Z" fill="#FAFF01"/>
<path d="M169 329H217V377H169V329Z" fill="#FAFF01"/>
<path d="M224 329H272V377H224V329Z" fill="#FAFF01"/>
<path d="M279 329H327V377H279V329Z" fill="#FAFF01"/>
<path d="M334 329H382V377H334V329Z" fill="#FAFF01"/>
<path d="M389 329H437V377H389V329Z" fill="#FAFF01"/>
<path d="M444 329H492V377H444V329Z" fill="#FAFF01"/>
<path d="M499 329H547V377H499V329Z" fill="#FAFF01"/>
<path d="M554 329H602V377H554V329Z" fill="#FAFF01"/>
<path d="M609 329H657V377H609V329Z" fill="#FAFF01"/>
<path d="M664 329H712V377H664V329Z" fill="#FAFF01"/>
<path d="M719 329H767V377H719V329Z" fill="#FAFF01"/>
<path d="M774 329H822V377H774V329Z" fill="#FAFF01"/>
<path d="M829 329H877V377H829V329Z" fill="#FAFF01"/>
<path d="M884 329H932V377H884V329Z" fill="#FAFF01"/>
<path d="M939 329H987V377H939V329Z" fill="#FAFF01"/>
<path d="M994 329H1042V377H994V329Z" fill="#FAFF01"/>
<path d="M1049 329H1097V377H1049V329Z" fill="#FAFF01"/>
<path d="M1104 329H1152V377H1104V329Z" fill="#FAFF01"/>
<path d="M1159 329H1207V377H1159V329Z" fill="#FAFF01"/>
<path d="M1214 329H1262V377H1214V329Z" fill="#FAFF01"/>
<path d="M1269 329H1317V377H1269V329Z" fill="#FAFF01"/>
<path d="M1324 329H1372V377H1324V329Z" fill="#FAFF01"/>
<path d="M1379 329H1427V377H1379V329Z" fill="#FAFF01"/>
<path d="M4 599H52V647H4V599Z" fill="#FAFF01"/>
<path d="M59 599H107V647H59V599Z" fill="#FAFF01"/>
<path d="M114 599H162V647H114V599Z" fill="#FAFF01"/>
<path d="M169 599H217V647H169V599Z" fill="#FAFF01"/>
<path d="M224 599H272V647H224V599Z" fill="#FAFF01"/>
<path d="M279 599H327V647H279V599Z" fill="#FAFF01"/>
<path d="M334 599H382V647H334V599Z" fill="#FAFF01"/>
<path d="M389 599H437V647H389V599Z" fill="#FAFF01"/>
<path d="M444 599H492V647H444V599Z" fill="#FAFF01"/>
<path d="M499 599H547V647H499V599Z" fill="#FAFF01"/>
<path d="M554 599H602V647H554V599Z" fill="#FAFF01"/>
<path d="M609 599H657V647H609V599Z" fill="#FAFF01"/>
<path d="M664 599H712V647H664V599Z" fill="#FAFF01"/>
<path d="M719 599H767V647H719V599Z" fill="#FAFF01"/>
<path d="M774 599H822V647H774V599Z" fill="#FAFF01"/>
<path d="M829 599H877V647H829V599Z" fill="#FAFF01"/>
<path d="M884 599H932V647H884V599Z" fill="#FAFF01"/>
<path d="M939 599H987V647H939V599Z" fill="#FAFF01"/>
<path d="M994 599H1042V647H994V599Z" fill="#FAFF01"/>
<path d="M1049 599H1097V647H1049V599Z" fill="#FAFF01"/>
<path d="M1104 599H1152V647H1104V599Z" fill="#FAFF01"/>
<path d="M1159 599H1207V647H1159V599Z" fill="#FAFF01"/>
<path d="M1214 599H1262V647H1214V599Z" fill="#FAFF01"/>
<path d="M1269 599H1317V647H1269V599Z" fill="#FAFF01"/>
<path d="M1324 599H1372V647H1324V599Z" fill="#FAFF01"/>
<path d="M1379 599H1427V647H1379V599Z" fill="#FAFF01"/>
<path d="M4 653H52V701H4V653Z" fill="#FAFF01"/>
<path d="M59 653H107V701H59V653Z" fill="#FAFF01"/>
<path d="M114 653H162V701H114V653Z" fill="#FAFF01"/>
<path d="M169 653H217V701H169V653Z" fill="#FAFF01"/>
<path d="M224 653H272V701H224V653Z" fill="#FAFF01"/>
<path d="M279 653H327V701H279V653Z" fill="#FAFF01"/>
<path d="M334 653H382V701H334V653Z" fill="#FAFF01"/>
<path d="M389 653H437V701H389V653Z" fill="#FAFF01"/>
<path d="M444 653H492V701H444V653Z" fill="#FAFF01"/>
<path d="M499 653H547V701H499V653Z" fill="#FAFF01"/>
<path d="M554 653H602V701H554V653Z" fill="#FAFF01"/>
<path d="M609 653H657V701H609V653Z" fill="#FAFF01"/>
<path d="M664 653H712V701H664V653Z" fill="#FAFF01"/>
<path d="M719 653H767V701H719V653Z" fill="#FAFF01"/>
<path d="M774 653H822V701H774V653Z" fill="#FAFF01"/>
<path d="M829 653H877V701H829V653Z" fill="#FAFF01"/>
<path d="M884 653H932V701H884V653Z" fill="#FAFF01"/>
<path d="M939 653H987V701H939V653Z" fill="#FAFF01"/>
<path d="M994 653H1042V701H994V653Z" fill="#FAFF01"/>
<path d="M1049 653H1097V701H1049V653Z" fill="#FAFF01"/>
<path d="M1104 653H1152V701H1104V653Z" fill="#FAFF01"/>
<path d="M1159 653H1207V701H1159V653Z" fill="#FAFF01"/>
<path d="M1214 653H1262V701H1214V653Z" fill="#FAFF01"/>
<path d="M1269 653H1317V701H1269V653Z" fill="#FAFF01"/>
<path d="M1324 653H1372V701H1324V653Z" fill="#FAFF01"/>
<path d="M1379 653H1427V701H1379V653Z" fill="#FAFF01"/>
<path d="M4 707H52V755H4V707Z" fill="#FAFF01"/>
<path d="M59 707H107V755H59V707Z" fill="#FAFF01"/>
<path d="M114 707H162V755H114V707Z" fill="#FAFF01"/>
<path d="M169 707H217V755H169V707Z" fill="#FAFF01"/>
<path d="M224 707H272V755H224V707Z" fill="#FAFF01"/>
<path d="M279 707H327V755H279V707Z" fill="#FAFF01"/>
<path d="M334 707H382V755H334V707Z" fill="#FAFF01"/>
<path d="M389 707H437V755H389V707Z" fill="#FAFF01"/>
<path d="M444 707H492V755H444V707Z" fill="#FAFF01"/>
<path d="M499 707H547V755H499V707Z" fill="#FAFF01"/>
<path d="M554 707H602V755H554V707Z" fill="#FAFF01"/>
<path d="M609 707H657V755H609V707Z" fill="#FAFF01"/>
<path d="M664 707H712V755H664V707Z" fill="#FAFF01"/>
<path d="M719 707H767V755H719V707Z" fill="#FAFF01"/>
<path d="M774 707H822V755H774V707Z" fill="#FAFF01"/>
<path d="M829 707H877V755H829V707Z" fill="#FAFF01"/>
<path d="M884 707H932V755H884V707Z" fill="#FAFF01"/>
<path d="M939 707H987V755H939V707Z" fill="#FAFF01"/>
<path d="M994 707H1042V755H994V707Z" fill="#FAFF01"/>
<path d="M1049 707H1097V755H1049V707Z" fill="#FAFF01"/>
<path d="M1104 707H1152V755H1104V707Z" fill="#FAFF01"/>
<path d="M1159 707H1207V755H1159V707Z" fill="#FAFF01"/>
<path d="M1214 707H1262V755H1214V707Z" fill="#FAFF01"/>
<path d="M1269 707H1317V755H1269V707Z" fill="#FAFF01"/>
<path d="M1324 707H1372V755H1324V707Z" fill="#FAFF01"/>
<path d="M1379 707H1427V755H1379V707Z" fill="#FAFF01"/>
<path d="M4 761H52V809H4V761Z" fill="#FAFF01"/>
<path d="M59 761H107V809H59V761Z" fill="#FAFF01"/>
<path d="M114 761H162V809H114V761Z" fill="#FAFF01"/>
<path d="M169 761H217V809H169V761Z" fill="#FAFF01"/>
<path d="M224 761H272V809H224V761Z" fill="#FAFF01"/>
<path d="M279 761H327V809H279V761Z" fill="#FAFF01"/>
<path d="M334 761H382V809H334V761Z" fill="#FAFF01"/>
<path d="M389 761H437V809H389V761Z" fill="#FAFF01"/>
<path d="M444 761H492V809H444V761Z" fill="#FAFF01"/>
<path d="M499 761H547V809H499V761Z" fill="#FAFF01"/>
<path d="M554 761H602V809H554V761Z" fill="#FAFF01"/>
<path d="M609 761H657V809H609V761Z" fill="#FAFF01"/>
<path d="M664 761H712V809H664V761Z" fill="#FAFF01"/>
<path d="M719 761H767V809H719V761Z" fill="#FAFF01"/>
<path d="M774 761H822V809H774V761Z" fill="#FAFF01"/>
<path d="M829 761H877V809H829V761Z" fill="#FAFF01"/>
<path d="M884 761H932V809H884V761Z" fill="#FAFF01"/>
<path d="M939 761H987V809H939V761Z" fill="#FAFF01"/>
<path d="M994 761H1042V809H994V761Z" fill="#FAFF01"/>
<path d="M1049 761H1097V809H1049V761Z" fill="#FAFF01"/>
<path d="M1104 761H1152V809H1104V761Z" fill="#FAFF01"/>
<path d="M1159 761H1207V809H1159V761Z" fill="#FAFF01"/>
<path d="M1214 761H1262V809H1214V761Z" fill="#FAFF01"/>
<path d="M1269 761H1317V809H1269V761Z" fill="#FAFF01"/>
<path d="M1324 761H1372V809H1324V761Z" fill="#FAFF01"/>
<path d="M1379 761H1427V809H1379V761Z" fill="#FAFF01"/>
<path d="M4 815H52V863H4V815Z" fill="#FAFF01"/>
<path d="M59 815H107V863H59V815Z" fill="#FAFF01"/>
<path d="M114 815H162V863H114V815Z" fill="#FAFF01"/>
<path d="M169 815H217V863H169V815Z" fill="#FAFF01"/>
<path d="M224 815H272V863H224V815Z" fill="#FAFF01"/>
<path d="M279 815H327V863H279V815Z" fill="#FAFF01"/>
<path d="M334 815H382V863H334V815Z" fill="#FAFF01"/>
<path d="M389 815H437V863H389V815Z" fill="#FAFF01"/>
<path d="M444 815H492V863H444V815Z" fill="#FAFF01"/>
<path d="M499 815H547V863H499V815Z" fill="#FAFF01"/>
<path d="M554 815H602V863H554V815Z" fill="#FAFF01"/>
<path d="M609 815H657V863H609V815Z" fill="#FAFF01"/>
<path d="M664 815H712V863H664V815Z" fill="#FAFF01"/>
<path d="M719 815H767V863H719V815Z" fill="#FAFF01"/>
<path d="M774 815H822V863H774V815Z" fill="#FAFF01"/>
<path d="M829 815H877V863H829V815Z" fill="#FAFF01"/>
<path d="M884 815H932V863H884V815Z" fill="#FAFF01"/>
<path d="M939 815H987V863H939V815Z" fill="#FAFF01"/>
<path d="M994 815H1042V863H994V815Z" fill="#FAFF01"/>
<path d="M1049 815H1097V863H1049V815Z" fill="#FAFF01"/>
<path d="M1104 815H1152V863H1104V815Z" fill="#FAFF01"/>
<path d="M1159 815H1207V863H1159V815Z" fill="#FAFF01"/>
<path d="M1214 815H1262V863H1214V815Z" fill="#FAFF01"/>
<path d="M1269 815H1317V863H1269V815Z" fill="#FAFF01"/>
<path d="M1324 815H1372V863H1324V815Z" fill="#FAFF01"/>
<path d="M1379 815H1427V863H1379V815Z" fill="#FAFF01"/>
<path d="M4 869H52V917H4V869Z" fill="#FAFF01"/>
<path d="M59 869H107V917H59V869Z" fill="#FAFF01"/>
<path d="M114 869H162V917H114V869Z" fill="#FAFF01"/>
<path d="M169 869H217V917H169V869Z" fill="#FAFF01"/>
<path d="M224 869H272V917H224V869Z" fill="#FAFF01"/>
<path d="M279 869H327V917H279V869Z" fill="#FAFF01"/>
<path d="M334 869H382V917H334V869Z" fill="#FAFF01"/>
<path d="M389 869H437V917H389V869Z" fill="#FAFF01"/>
<path d="M444 869H492V917H444V869Z" fill="#FAFF01"/>
<path d="M499 869H547V917H499V869Z" fill="#FAFF01"/>
<path d="M554 869H602V917H554V869Z" fill="#FAFF01"/>
<path d="M609 869H657V917H609V869Z" fill="#FAFF01"/>
<path d="M664 869H712V917H664V869Z" fill="#FAFF01"/>
<path d="M719 869H767V917H719V869Z" fill="#FAFF01"/>
<path d="M774 869H822V917H774V869Z" fill="#FAFF01"/>
<path d="M829 869H877V917H829V869Z" fill="#FAFF01"/>
<path d="M884 869H932V917H884V869Z" fill="#FAFF01"/>
<path d="M939 869H987V917H939V869Z" fill="#FAFF01"/>
<path d="M994 869H1042V917H994V869Z" fill="#FAFF01"/>
<path d="M1049 869H1097V917H1049V869Z" fill="#FAFF01"/>
<path d="M1104 869H1152V917H1104V869Z" fill="#FAFF01"/>
<path d="M1159 869H1207V917H1159V869Z" fill="#FAFF01"/>
<path d="M1214 869H1262V917H1214V869Z" fill="#FAFF01"/>
<path d="M1269 869H1317V917H1269V869Z" fill="#FAFF01"/>
<path d="M1324 869H1372V917H1324V869Z" fill="#FAFF01"/>
<path d="M1379 869H1427V917H1379V869Z" fill="#FAFF01"/>
<path d="M4 923H52V971H4V923Z" fill="#FAFF01"/>
<path d="M59 923H107V971H59V923Z" fill="#FAFF01"/>
<path d="M114 923H162V971H114V923Z" fill="#FAFF01"/>
<path d="M169 923H217V971H169V923Z" fill="#FAFF01"/>
<path d="M224 923H272V971H224V923Z" fill="#FAFF01"/>
<path d="M279 923H327V971H279V923Z" fill="#FAFF01"/>
<path d="M334 923H382V971H334V923Z" fill="#FAFF01"/>
<path d="M389 923H437V971H389V923Z" fill="#FAFF01"/>
<path d="M444 923H492V971H444V923Z" fill="#FAFF01"/>
<path d="M499 923H547V971H499V923Z" fill="#FAFF01"/>
<path d="M554 923H602V971H554V923Z" fill="#FAFF01"/>
<path d="M609 923H657V971H609V923Z" fill="#FAFF01"/>
<path d="M664 923H712V971H664V923Z" fill="#FAFF01"/>
<path d="M719 923H767V971H719V923Z" fill="#FAFF01"/>
<path d="M774 923H822V971H774V923Z" fill="#FAFF01"/>
<path d="M829 923H877V971H829V923Z" fill="#FAFF01"/>
<path d="M884 923H932V971H884V923Z" fill="#FAFF01"/>
<path d="M939 923H987V971H939V923Z" fill="#FAFF01"/>
<path d="M994 923H1042V971H994V923Z" fill="#FAFF01"/>
<path d="M1049 923H1097V971H1049V923Z" fill="#FAFF01"/>
<path d="M1104 923H1152V971H1104V923Z" fill="#FAFF01"/>
<path d="M1159 923H1207V971H1159V923Z" fill="#FAFF01"/>
<path d="M1214 923H1262V971H1214V923Z" fill="#FAFF01"/>
<path d="M1269 923H1317V971H1269V923Z" fill="#FAFF01"/>
<path d="M1324 923H1372V971H1324V923Z" fill="#FAFF01"/>
<path d="M1379 923H1427V971H1379V923Z" fill="#FAFF01"/>
<path d="M4 977H52V1025H4V977Z" fill="#FAFF01"/>
<path d="M59 977H107V1025H59V977Z" fill="#FAFF01"/>
<path d="M114 977H162V1025H114V977Z" fill="#FAFF01"/>
<path d="M169 977H217V1025H169V977Z" fill="#FAFF01"/>
<path d="M224 977H272V1025H224V977Z" fill="#FAFF01"/>
<path d="M279 977H327V1025H279V977Z" fill="#FAFF01"/>
<path d="M334 977H382V1025H334V977Z" fill="#FAFF01"/>
<path d="M389 977H437V1025H389V977Z" fill="#FAFF01"/>
<path d="M444 977H492V1025H444V977Z" fill="#FAFF01"/>
<path d="M499 977H547V1025H499V977Z" fill="#FAFF01"/>
<path d="M554 977H602V1025H554V977Z" fill="#FAFF01"/>
<path d="M609 977H657V1025H609V977Z" fill="#FAFF01"/>
<path d="M664 977H712V1025H664V977Z" fill="#FAFF01"/>
<path d="M719 977H767V1025H719V977Z" fill="#FAFF01"/>
<path d="M774 977H822V1025H774V977Z" fill="#FAFF01"/>
<path d="M829 977H877V1025H829V977Z" fill="#FAFF01"/>
<path d="M884 977H932V1025H884V977Z" fill="#FAFF01"/>
<path d="M939 977H987V1025H939V977Z" fill="#FAFF01"/>
<path d="M994 977H1042V1025H994V977Z" fill="#FAFF01"/>
<path d="M1049 977H1097V1025H1049V977Z" fill="#FAFF01"/>
<path d="M1104 977H1152V1025H1104V977Z" fill="#FAFF01"/>
<path d="M1159 977H1207V1025H1159V977Z" fill="#FAFF01"/>
<path d="M1214 977H1262V1025H1214V977Z" fill="#FAFF01"/>
<path d="M1269 977H1317V1025H1269V977Z" fill="#FAFF01"/>
<path d="M1324 977H1372V1025H1324V977Z" fill="#FAFF01"/>
<path d="M1379 977H1427V1025H1379V977Z" fill="#FAFF01"/>
</g>
<defs>
<clipPath id="clip0">
<rect width="1432" height="1024" fill="white"/>
</clipPath>
</defs>
</svg>
