<svg xmlns="http://www.w3.org/2000/svg" width="24" height="6"><rect id="backgroundrect" width="100%" height="100%" x="0" y="0" fill="none" stroke="none"/><g class="currentLayer" style=""><title>Layer 1</title><path d="M6,3 c0,1.657 -1.343,3 -3,3 s-3,-1.343 -3,-3 s1.343,-3 3,-3 s3,1.343 3,3 zm9,0 c0,1.657 -1.343,3 -3,3 s-3,-1.343 -3,-3 s1.343,-3 3,-3 s3,1.343 3,3 zm9,0 c0,1.657 -1.343,3 -3,3 s-3,-1.343 -3,-3 s1.343,-3 3,-3 s3,1.343 3,3 z" id="svg_1" class="" fill-opacity="1" fill="#faff01"/></g></svg>